<?xml version="1.0" encoding="utf-8"?>
<!-- Generator: Adobe Illustrator 21.1.0, SVG Export Plug-In . SVG Version: 6.00 Build 0)  -->
<svg version="1.1" id="Layer_1" xmlns="http://www.w3.org/2000/svg" xmlns:xlink="http://www.w3.org/1999/xlink" x="0px" y="0px"
	 viewBox="0 0 512 512" style="enable-background:new 0 0 512 512;" xml:space="preserve">
<style type="text/css">
	.st0{fill:none;stroke:#A9CCDB;stroke-miterlimit:10;}
	.st1{fill:#29ABE2;}
</style>
<g id="Grid_1_">
	<g id="Layer_1_1_">
		<g id="Grid">
			<g>
				<path class="st0" d="M512,0"/>
				<path class="st0" d="M0,0"/>
				<path class="st0" d="M0,512"/>
				<path class="st0" d="M512,512"/>
				<path class="st0" d="M512,480"/>
				<path class="st0" d="M0,480"/>
				<path class="st0" d="M512,448"/>
				<path class="st0" d="M512,416"/>
				<path class="st0" d="M0,416"/>
				<path class="st0" d="M512,384"/>
				<path class="st0" d="M0,384"/>
				<path class="st0" d="M512,352"/>
				<path class="st0" d="M0,352"/>
				<path class="st0" d="M512,320"/>
				<path class="st0" d="M0,320"/>
				<path class="st0" d="M512,288"/>
				<path class="st0" d="M0,288"/>
				<path class="st0" d="M512,256"/>
				<path class="st0" d="M0,256"/>
				<path class="st0" d="M512,224"/>
				<path class="st0" d="M0,224"/>
				<path class="st0" d="M512,192"/>
				<path class="st0" d="M0,192"/>
				<path class="st0" d="M512,160"/>
				<path class="st0" d="M0,160"/>
				<path class="st0" d="M512,128"/>
				<path class="st0" d="M0,128"/>
				<path class="st0" d="M512,96"/>
				<path class="st0" d="M0,96"/>
				<path class="st0" d="M512,64"/>
				<path class="st0" d="M0,64"/>
				<path class="st0" d="M512,32"/>
				<path class="st0" d="M0,32"/>
				<path class="st0" d="M472-89.4"/>
				<path class="st0" d="M448,512"/>
				<path class="st0" d="M416,512"/>
				<path class="st0" d="M416,0"/>
				<path class="st0" d="M384,512"/>
				<path class="st0" d="M384,0"/>
				<path class="st0" d="M352,512"/>
				<path class="st0" d="M352,0"/>
				<path class="st0" d="M320,512"/>
				<path class="st0" d="M320,0"/>
				<path class="st0" d="M32,525"/>
				<path class="st0" d="M32,13"/>
				<path class="st0" d="M256,512"/>
				<path class="st0" d="M256,0"/>
				<path class="st0" d="M224,512"/>
				<path class="st0" d="M224,0"/>
				<path class="st0" d="M192,512"/>
				<path class="st0" d="M192,0"/>
				<path class="st0" d="M160,512"/>
				<path class="st0" d="M160,0"/>
				<path class="st0" d="M128,512"/>
				<path class="st0" d="M128,0"/>
				<path class="st0" d="M96,512"/>
				<path class="st0" d="M96,0"/>
				<path class="st0" d="M64,512"/>
				<path class="st0" d="M64,0"/>
				<path class="st0" d="M82,516.6"/>
				<path class="st0" d="M82,4.6"/>
			</g>
		</g>
	</g>
</g>
<path class="st1" d="M349.9,343.1c-49.9,49.9-131.1,49.9-181,0s-49.9-131.1,0-181c13.2-13.2,29.3-23.2,47.8-29.8
	c5.8-2,12.3-0.6,16.6,3.8c4.4,4.4,5.9,10.8,3.8,16.6c-12.5,35.4-4,73.7,22.2,99.9s64.5,34.8,99.9,22.2c5.8-2.1,12.3-0.6,16.6,3.8
	c4.4,4.3,5.8,10.8,3.8,16.6C373.1,313.8,363.1,329.9,349.9,343.1z M191.5,184.8c-37.4,37.4-37.4,98.4,0,135.8
	c40,40,108.1,36.4,143-8.2c-36,2.2-71.4-10.7-97.8-37.1s-39.3-61.8-37.1-97.7C196.8,179.8,194,182.2,191.5,184.8z"/>
</svg>
