<?xml version="1.0" encoding="utf-8"?>
<!-- Generator: Adobe Illustrator 21.1.0, SVG Export Plug-In . SVG Version: 6.00 Build 0)  -->
<svg version="1.1" id="Layer_1" xmlns="http://www.w3.org/2000/svg" xmlns:xlink="http://www.w3.org/1999/xlink" x="0px" y="0px"
	 viewBox="0 0 512 512" style="enable-background:new 0 0 512 512;" xml:space="preserve">
<style type="text/css">
	.st0{fill:#29ABE2;}
</style>
<path class="st0" d="M438,208.4c0-35.6-28.9-64.4-64.5-64.4c-1.7,0-3.5,0.1-5.1,0.2c-16.7-20.9-41.9-33.2-69.2-33.2
	s-52.5,12.4-69.2,33.2c-1.7-0.1-3.5-0.2-5.2-0.2c-35.5,0-64.4,28.9-64.4,64.4c0,3.7,0.5,7.3,1.1,10.8c-0.4,0.5-0.9,1-1.2,1.5
	c-3.8-0.6-7.6-0.8-11.4-0.8c-44.7,0-80.9,36.3-80.9,80.9s36.3,80.9,80.9,80.9c9.9,0,19.6-1.8,28.7-5.3c21,18.2,47.6,28.4,75.4,28.4
	s54.4-10.2,75.4-28.4c9.1,3.5,18.8,5.3,28.7,5.3c44.7,0,80.9-36.3,80.9-80.9c0-18.6-6.5-35.5-17.1-49.1
	C431.4,240.3,438,225.2,438,208.4z M357.1,358.7c-12.4,0-23.8-4-33.2-10.6c-17,20.5-42.3,33.7-70.9,33.7s-53.9-13.3-70.9-33.7
	c-9.4,6.6-20.8,10.6-33.2,10.6c-31.9,0-57.8-25.9-57.8-57.8s25.9-57.8,57.8-57.8c7.8,0,15.2,1.6,22,4.4c0.4-0.8,0.9-1.4,1.3-2.2
	c4-7.4,9.1-14.2,15-20.2c16.7-17.3,39.9-28.2,65.8-28.2c35.9,0,66.7,20.7,82,50.7c4-1.7,8.5-2.7,12.9-3.5l9.1-1
	c8.9,0,17.3,2.2,24.8,5.8c8.2,3.9,15.2,9.7,20.7,16.8c7.6,9.8,12.3,22,12.3,35.3C414.9,332.9,389,358.7,357.1,358.7z M404.5,235.6
	c-13.4-9.8-29.6-15.6-47.4-15.6c-3.8,0-7.7,0.3-11.4,0.8c-21.6-29.4-55.6-47-92.6-47c-24.6,0-47.9,7.9-67.1,21.9
	c5.4-16.5,20.7-28.5,39.1-28.5c5.6,0,10.9,1.2,15.8,3.1c11-21.4,33-36.1,58.6-36.1s47.7,14.8,58.6,36.1c4.8-2,10.2-3.1,15.7-3.1
	c22.8,0,41.3,18.5,41.3,41.3C414.9,218.9,410.8,228.3,404.5,235.6z"/>
</svg>
