<?xml version="1.0" encoding="utf-8"?>
<!-- Generator: Adobe Illustrator 21.1.0, SVG Export Plug-In . SVG Version: 6.00 Build 0)  -->
<svg version="1.1" id="Layer_1" xmlns="http://www.w3.org/2000/svg" xmlns:xlink="http://www.w3.org/1999/xlink" x="0px" y="0px"
	 viewBox="0 0 512 512" style="enable-background:new 0 0 512 512;" xml:space="preserve">
<style type="text/css">
	.st0{fill:#29ABE2;}
</style>
<g>
	<g>
		<path class="st0" d="M225.1,122.2c5.7,0,10.3-4.6,10.3-10.3V91.3c0-5.7-4.6-10.3-10.3-10.3s-10.3,4.6-10.3,10.3v20.6
			C214.8,117.6,219.4,122.2,225.1,122.2z M305.3,149.5l14.5-14.5c4-4,4-10.5,0-14.5c-4-4-10.5-4-14.5,0l-14.5,14.5
			c-4,4-4,10.5,0,14.5C294.7,153.5,301.3,153.5,305.3,149.5z M101.3,225.4h20.6c5.7,0,10.3-4.6,10.3-10.3s-4.6-10.3-10.3-10.3h-20.6
			c-5.7,0-10.3,4.6-10.3,10.3S95.6,225.4,101.3,225.4z M317.9,215.1c0,5.7,4.6,10.3,10.3,10.3h20.6c5.7,0,10.3-4.6,10.3-10.3
			s-4.6-10.3-10.3-10.3h-20.6C322.5,204.8,317.9,209.4,317.9,215.1z M144.8,149.5c4,4,10.5,4,14.5,0s4-10.5,0-14.5l-14.5-14.5
			c-4-4-10.5-4-14.5,0c-4,4-4,10.5,0,14.5L144.8,149.5z M348.8,246c-3.4,0-6.8,0.2-10.2,0.7c-10.8-14.7-25.3-26-41.6-33.2
			c-0.8-39.1-32.7-70.6-72-70.6c-39.8,0-72.2,32.4-72.2,72.2c0,11.2,2.8,21.8,7.4,31.2c-38.5,1.5-69.3,33.1-69.3,71.9
			c0,39.8,32.4,72.2,72.2,72.2c8.9,0,17.4-1.6,25.6-4.7c18.7,16.3,42.4,25.4,67.2,25.4s48.6-9.1,67.2-25.4
			c8.1,3.1,16.8,4.7,25.6,4.7c39.8,0,72.2-32.4,72.2-72.2S388.6,246,348.8,246z M225.1,163.5c25.7,0,46.8,18.8,50.7,43.3
			c-6.5-1.2-13.1-2.1-19.8-2.1c-29.6,0-57,12.8-76.3,34.3c-3.8-7.2-6.2-15.3-6.2-24C173.5,186.6,196.6,163.5,225.1,163.5z
			 M348.8,369.8c-11,0-21.2-3.5-29.6-9.5c-15.2,18.3-37.6,30.1-63.2,30.1s-48.1-11.9-63.2-30.1c-8.4,5.9-18.6,9.5-29.6,9.5
			c-28.5,0-51.6-23.1-51.6-51.6s23.1-51.6,51.6-51.6c4.9,0,9.7,0.9,14.2,2.3c1.9,0.5,3.6,0.9,5.4,1.6c2.8-5.6,6.4-10.5,10.3-15.3
			c15.1-18.2,37.4-29.8,62.9-29.8c6.5,0,12.8,0.9,18.9,2.4c6.8,1.7,13.2,4,19.2,7.3c15.1,7.9,27.3,20.3,35.1,35.5
			c6.1-2.5,12.7-3.9,19.6-3.9c28.5,0,51.6,23.1,51.6,51.6C400.3,346.8,377.3,369.8,348.8,369.8z"/>
	</g>
</g>
</svg>
