<?xml version="1.0" encoding="utf-8"?>
<!-- Generator: Adobe Illustrator 21.1.0, SVG Export Plug-In . SVG Version: 6.00 Build 0)  -->
<svg version="1.1" id="Layer_1" xmlns="http://www.w3.org/2000/svg" xmlns:xlink="http://www.w3.org/1999/xlink" x="0px" y="0px"
	 viewBox="0 0 512 512" style="enable-background:new 0 0 512 512;" xml:space="preserve">
<style type="text/css">
	.st0{fill:#29ABE2;}
</style>
<g>
	<path class="st0" d="M287.1,369.7l-8-4.6c0.2-1.4,0.4-2.8,0.4-4.3s-0.2-2.9-0.4-4.3l8-4.6c3.8-2.2,5-7,2.8-10.7
		c-2.1-3.8-7-5-10.7-2.9l-8.1,4.7c-2.1-1.8-4.6-3.3-7.3-4.3v-9.3c0-4.3-3.6-7.9-7.9-7.9c-4.3,0-7.8,3.5-7.8,7.9v9.2
		c-2.7,1-5.2,2.4-7.3,4.3l-8-4.7c-3.8-2.1-8.6-0.9-10.7,2.8c-2.1,3.8-0.9,8.5,2.9,10.7l8,4.6c-0.3,1.4-0.4,2.8-0.4,4.3
		s0.1,2.9,0.4,4.3l-8,4.6c-3.8,2.1-5,7-2.9,10.7s7,5,10.7,2.8l8.1-4.6c2.1,1.8,4.6,3.3,7.3,4.3v9.4c0,4.3,3.5,7.8,7.8,7.8
		c4.3,0,7.9-3.5,7.9-7.8v-9.3c2.7-1,5.2-2.4,7.3-4.3l8.1,4.7c3.8,2.1,8.5,0.9,10.7-2.8C292.2,376.6,290.9,371.9,287.1,369.7z
		 M256,368.7c-4.3,0-7.9-3.6-7.9-7.9s3.6-7.8,7.9-7.8s7.8,3.5,7.8,7.8S260.4,368.7,256,368.7z M416,206c0-38.6-31.4-70-70-70
		c-3.3,0-6.6,0.2-9.9,0.7C317.5,111.3,288,96,256,96s-61.4,15.3-80.1,40.7c-3.3-0.5-6.6-0.7-9.9-0.7c-38.6,0-70,31.4-70,70
		s31.4,70,70,70c8.6,0,16.9-1.6,24.8-4.6c18.1,15.8,41.1,24.6,65.2,24.6s47.1-8.8,65.2-24.6c7.9,3,16.3,4.6,24.8,4.6
		C384.6,276,416,244.6,416,206z M317.3,246.8C302.6,264.5,280.8,276,256,276s-46.6-11.5-61.3-29.2c-8.1,5.7-18,9.2-28.7,9.2
		c-27.6,0-50-22.4-50-50s22.4-50,50-50c6.8,0,13.2,1.4,19,3.8c13.3-25.9,39.9-43.8,71-43.8s57.7,17.9,71,43.8
		c5.9-2.4,12.3-3.8,19-3.8c27.6,0,50,22.4,50,50s-22.4,50-50,50C335.3,256,325.4,252.6,317.3,246.8z M124.8,331.5
		c0,11.7,9.5,21.2,21.2,21.2s21.2-9.5,21.2-21.2S146,289,146,289S124.8,319.8,124.8,331.5z M333.8,371.5c0,11.7,9.5,21.2,21.2,21.2
		s21.2-9.5,21.2-21.2S355,329,355,329S333.8,359.8,333.8,371.5z"/>
</g>
</svg>
