<?xml version="1.0" encoding="utf-8"?>
<!-- Generator: Adobe Illustrator 21.1.0, SVG Export Plug-In . SVG Version: 6.00 Build 0)  -->
<svg version="1.1" id="Layer_1" xmlns="http://www.w3.org/2000/svg" xmlns:xlink="http://www.w3.org/1999/xlink" x="0px" y="0px"
	 viewBox="0 0 512 512" style="enable-background:new 0 0 512 512;" xml:space="preserve">
<style type="text/css">
	.st0{fill:#29ABE2;}
</style>
<g>
	<g>
		<path class="st0" d="M378.7,218.2c-17.8,0-32.3,14.5-32.3,32.3c0,3.8,0.8,7.4,2,10.8H141.8c-5.9,0-10.8,4.8-10.8,10.8
			s4.8,10.8,10.8,10.8h236.9c17.8,0,32.3-14.5,32.3-32.3S396.5,218.2,378.7,218.2z M141.8,239.7H271c17.8,0,32.3-14.5,32.3-32.3
			s-14.5-32.3-32.3-32.3s-32.3,14.5-32.3,32.3c0,3.8,0.8,7.4,2,10.8h-98.9c-5.9,0-10.8,4.8-10.8,10.8S135.8,239.7,141.8,239.7z
			 M314.1,304.3c-0.6,0-1.2,0.1-1.9,0.2c-0.4,0-0.7-0.2-1.2-0.2H144.9c-7.7,0-13.9,4.8-13.9,10.8s6.2,10.8,13.9,10.8h138.9
			c-1.2,3.4-2,7-2,10.8c0,17.8,14.5,32.3,32.3,32.3s32.3-14.5,32.3-32.3S331.9,304.3,314.1,304.3z"/>
	</g>
</g>
</svg>
