<?xml version="1.0" encoding="utf-8"?>
<!-- Generator: Adobe Illustrator 21.1.0, SVG Export Plug-In . SVG Version: 6.00 Build 0)  -->
<svg version="1.1" id="Layer_1" xmlns="http://www.w3.org/2000/svg" xmlns:xlink="http://www.w3.org/1999/xlink" x="0px" y="0px"
	 viewBox="0 0 512 512" style="enable-background:new 0 0 512 512;" xml:space="preserve">
<style type="text/css">
	.st0{display:none;}
	.st1{display:inline;}
	.st2{fill:none;stroke:#A9CCDB;stroke-miterlimit:10;}
	.st3{fill:#FF931E;}
</style>
<g id="Layer_1_2_" class="st0">
	<g id="Grid_1_" class="st1">
		<g id="Layer_1_1_">
			<g id="Grid">
				<g>
					<rect class="st2" width="512" height="512"/>
					<line class="st2" x1="0" y1="480" x2="512" y2="480"/>
					<line class="st2" x1="0" y1="448" x2="512" y2="448"/>
					<line class="st2" x1="0" y1="416" x2="512" y2="416"/>
					<line class="st2" x1="0" y1="384" x2="512" y2="384"/>
					<line class="st2" x1="0" y1="352" x2="512" y2="352"/>
					<line class="st2" x1="0" y1="320" x2="512" y2="320"/>
					<line class="st2" x1="0" y1="288" x2="512" y2="288"/>
					<line class="st2" x1="0" y1="256" x2="512" y2="256"/>
					<line class="st2" x1="0" y1="224" x2="512" y2="224"/>
					<line class="st2" x1="0" y1="192" x2="512" y2="192"/>
					<line class="st2" x1="0" y1="160" x2="512" y2="160"/>
					<line class="st2" x1="0" y1="128" x2="512" y2="128"/>
					<line class="st2" x1="0" y1="96" x2="512" y2="96"/>
					<line class="st2" x1="0" y1="64" x2="512" y2="64"/>
					<line class="st2" x1="0" y1="32" x2="512" y2="32"/>
					<line class="st2" x1="480" y1="0" x2="480" y2="512"/>
					<line class="st2" x1="448" y1="0" x2="448" y2="512"/>
					<line class="st2" x1="416" y1="0" x2="416" y2="512"/>
					<line class="st2" x1="384" y1="0" x2="384" y2="512"/>
					<line class="st2" x1="352" y1="0" x2="352" y2="512"/>
					<line class="st2" x1="320" y1="0" x2="320" y2="512"/>
					<line class="st2" x1="288" y1="0" x2="288" y2="512"/>
					<line class="st2" x1="256" y1="0" x2="256" y2="512"/>
					<line class="st2" x1="224" y1="0" x2="224" y2="512"/>
					<line class="st2" x1="192" y1="0" x2="192" y2="512"/>
					<line class="st2" x1="160" y1="0" x2="160" y2="512"/>
					<line class="st2" x1="128" y1="0" x2="128" y2="512"/>
					<line class="st2" x1="96" y1="0" x2="96" y2="512"/>
					<line class="st2" x1="64" y1="0" x2="64" y2="512"/>
					<line class="st2" x1="32" y1="0" x2="32" y2="512"/>
				</g>
			</g>
		</g>
	</g>
</g>
<g id="Layer_2">
	<g>
		<path class="st3" d="M256,144c-61.8,0-112,50.2-112,112s50.2,112,112,112s112-50.2,112-112S317.8,144,256,144z M256,336
			c-44.2,0-80-35.8-80-80s35.8-80,80-80s80,35.8,80,80S300.2,336,256,336z M256,124.5c8,0,14.6-6.6,14.6-14.6V80.6
			c0-8-6.6-14.6-14.6-14.6s-14.6,6.6-14.6,14.6v29.2C241.4,117.9,248,124.5,256,124.5z M256,387.5c-8,0-14.6,6.6-14.6,14.6v29.2
			c0,8,6.6,14.6,14.6,14.6c8,0,14.6-6.6,14.6-14.6v-29.2C270.6,394.1,264,387.5,256,387.5z M369.6,163l20.6-20.6
			c5.7-5.7,5.7-15,0-20.6c-5.7-5.7-15-5.7-20.6,0L349,142.4c-5.7,5.7-5.7,15,0,20.6C354.7,168.7,364,168.7,369.6,163z M142.4,349
			l-20.6,20.6c-5.7,5.7-5.7,15,0,20.6c5.7,5.7,15,5.7,20.6,0l20.6-20.6c5.7-5.8,5.7-15,0-20.6C157.3,343.3,148,343.3,142.4,349z
			 M124.5,256c0-8-6.6-14.6-14.6-14.6H80.6c-8,0-14.6,6.6-14.6,14.6c0,8,6.6,14.6,14.6,14.6h29.2C117.9,270.6,124.5,264,124.5,256z
			 M431.4,241.4h-29.2c-8,0-14.6,6.6-14.6,14.6c0,8,6.6,14.6,14.6,14.6h29.2c8,0,14.6-6.6,14.6-14.6S439.4,241.4,431.4,241.4z
			 M142.3,163c5.8,5.7,15,5.7,20.6,0c5.8-5.7,5.8-15,0-20.6l-20.6-20.6c-5.7-5.7-15-5.7-20.6,0s-5.7,15,0,20.6L142.3,163z
			 M369.7,349c-5.8-5.7-15-5.7-20.6,0c-5.8,5.7-5.8,15,0,20.6l20.6,20.6c5.7,5.7,15,5.7,20.6,0c5.7-5.7,5.7-15,0-20.6L369.7,349z"/>
	</g>
</g>
</svg>
