<?xml version="1.0" encoding="utf-8"?>
<!-- Generator: Adobe Illustrator 21.1.0, SVG Export Plug-In . SVG Version: 6.00 Build 0)  -->
<svg version="1.1" id="Layer_1" xmlns="http://www.w3.org/2000/svg" xmlns:xlink="http://www.w3.org/1999/xlink" x="0px" y="0px"
	 viewBox="0 0 512 512" style="enable-background:new 0 0 512 512;" xml:space="preserve">
<style type="text/css">
	.st0{fill:#FF931E;}
</style>
<path class="st0" d="M410.3,238.3h-54.4c-5.4-47.9-45.7-85.3-94.9-85.3c-33.2,0-62.5,17-79.7,42.7h-69.6c-5.9,0-10.7,4.8-10.7,10.7
	s4.8,10.7,10.7,10.7h59.2c-2.4,6.8-4,13.9-4.8,21.3H133c-5.9,0-10.7,4.8-10.7,10.7s4.8,10.7,10.7,10.7h33.1
	c0.9,7.4,2.4,14.5,4.8,21.3h-57.3c-7,0-12.6,4.8-12.6,10.7c0,5.9,5.6,10.7,12.6,10.7h67.6c17.3,25.7,46.5,42.7,79.7,42.7
	s62.5-16.9,79.7-42.7h25c7,0,12.6-4.8,12.6-10.7c0-5.9-5.6-10.7-12.6-10.7H351c2.4-6.8,4-13.9,4.8-21.3h54.5
	c5.9,0,10.7-4.8,10.7-10.7S416.2,238.3,410.3,238.3z M193.8,217H261c5.9,0,10.7-4.8,10.7-10.7s-4.8-10.7-10.7-10.7h-52.1
	c13.4-13.2,31.8-21.3,52.1-21.3c37.5,0,68.3,27.9,73.6,64H187.4C188.5,230.8,190.7,223.6,193.8,217z M261,323.7
	c-20.3,0-38.6-8.2-52.1-21.3h104.2C299.6,315.5,281.3,323.7,261,323.7z M328.2,281H193.8c-3.2-6.6-5.3-13.8-6.4-21.3h147.2
	C333.5,267.2,331.3,274.4,328.2,281z"/>
</svg>
