<?xml version="1.0" encoding="utf-8"?>
<!-- Generator: Adobe Illustrator 21.1.0, SVG Export Plug-In . SVG Version: 6.00 Build 0)  -->
<svg version="1.1" id="Layer_1" xmlns="http://www.w3.org/2000/svg" xmlns:xlink="http://www.w3.org/1999/xlink" x="0px" y="0px"
	 viewBox="0 0 512 512" style="enable-background:new 0 0 512 512;" xml:space="preserve">
<style type="text/css">
	.st0{fill:#FF931E;}
</style>
<g>
	<g>
		<path class="st0" d="M226,126c5.5,0,10-4.5,10-10V96c0-5.5-4.5-10-10-10s-10,4.5-10,10v20C216,121.5,220.5,126,226,126z
			 M303.8,152.4l14.1-14.1c3.9-3.9,3.9-10.2,0-14.1c-3.9-3.9-10.2-3.9-14.1,0l-14.1,14.1c-3.9,3.9-3.9,10.2,0,14.1
			C293.5,156.3,299.9,156.3,303.8,152.4z M106,226h20c5.5,0,10-4.5,10-10s-4.5-10-10-10h-20c-5.5,0-10,4.5-10,10S100.5,226,106,226z
			 M316,216c0,5.5,4.5,10,10,10h20c5.5,0,10-4.5,10-10s-4.5-10-10-10h-20C320.5,206,316,210.5,316,216z M148.2,152.4
			c3.9,3.9,10.2,3.9,14.1,0c3.9-3.9,3.9-10.2,0-14.1l-14.1-14.1c-3.9-3.9-10.2-3.9-14.1,0c-3.9,3.9-3.9,10.2,0,14.1L148.2,152.4z
			 M346,246c-3.3,0-6.6,0.2-9.9,0.7c-10.5-14.3-24.5-25.2-40.3-32.2C295,176.6,264.1,146,226,146c-38.6,0-70,31.4-70,70
			c0,10.9,2.7,21.1,7.2,30.3C125.9,247.8,96,278.4,96,316c0,38.6,31.4,70,70,70c8.6,0,16.9-1.6,24.8-4.6
			c18.1,15.8,41.1,24.6,65.2,24.6c24.1,0,47.1-8.8,65.2-24.6c7.9,3,16.3,4.6,24.8,4.6c38.6,0,70-31.4,70-70S384.6,246,346,246z
			 M226,166c24.9,0,45.4,18.2,49.2,42c-6.3-1.2-12.7-2-19.2-2c-28.7,0-55.3,12.4-74,33.3c-3.7-7-6-14.8-6-23.3
			C176,188.4,198.4,166,226,166z M346,366c-10.7,0-20.6-3.4-28.7-9.2C302.6,374.5,280.8,386,256,386c-24.8,0-46.6-11.5-61.3-29.2
			c-8.1,5.7-18,9.2-28.7,9.2c-27.6,0-50-22.4-50-50s22.4-50,50-50c4.8,0,9.4,0.9,13.8,2.2c1.8,0.5,3.5,0.9,5.2,1.6
			c2.7-5.4,6.2-10.2,10-14.8c14.6-17.6,36.3-28.9,61-28.9c6.3,0,12.4,0.9,18.3,2.3c6.6,1.6,12.8,3.9,18.6,7.1
			c14.6,7.7,26.5,19.7,34,34.4c5.9-2.4,12.3-3.8,19-3.8c27.6,0,50,22.4,50,50S373.6,366,346,366z"/>
	</g>
</g>
</svg>
