<?xml version="1.0" encoding="utf-8"?>
<!-- Generator: Adobe Illustrator 21.1.0, SVG Export Plug-In . SVG Version: 6.00 Build 0)  -->
<svg version="1.1" id="Layer_1" xmlns="http://www.w3.org/2000/svg" xmlns:xlink="http://www.w3.org/1999/xlink" x="0px" y="0px"
	 viewBox="0 0 512 512" style="enable-background:new 0 0 512 512;" xml:space="preserve">
<style type="text/css">
	.st0{fill:#FF931E;}
</style>
<path class="st0" d="M371.4,236.9c3.1-2.3,6.3-4.6,9.2-7.5c8.5-8.5,15-18.9,19.2-30.8c1.3-3.7,0.4-7.9-2.4-10.7
	c-2.8-2.8-7-3.8-10.7-2.4c-22.8,8.1-47.5,2.6-64.4-14.3c-16.9-16.9-22.4-41.6-14.3-64.4c1.3-3.7,0.4-7.9-2.4-10.7
	c-2.8-2.8-7-3.8-10.7-2.4c-12,4.2-22.3,10.7-30.8,19.2c-21.6,21.6-28.3,52.2-20.9,79.8c-27.9,3.6-52.9,18.4-69.6,41.1
	c-3.4-0.5-6.8-0.7-10.2-0.7c-39.8,0-72.2,32.4-72.2,72.2c0,39.8,32.4,72.2,72.2,72.2c8.8,0,17.5-1.6,25.6-4.7
	c18.7,16.3,42.4,25.4,67.2,25.4c24.8,0,48.6-9.1,67.2-25.4c8.1,3.1,16.8,4.7,25.6,4.7c39.8,0,72.2-32.4,72.2-72.2
	C421,273.2,400.1,246.4,371.4,236.9z M278.5,127.3c1.6-1.7,3.4-3.2,5.3-4.7c-1.5,23.2,6.9,46,23.9,63c17,17,39.8,25.4,63,23.9
	c-8.9,11.3-21.1,18.4-34.2,21.4c-17.6-22.4-43.6-36.5-72.2-38.8C256.4,170.3,261,144.8,278.5,127.3z M348.8,356.6
	c-11,0-21.2-3.5-29.6-9.5c-15.1,18.2-37.7,30.1-63.2,30.1c-25.5,0-48.1-11.8-63.2-30.1c-8.4,5.9-18.6,9.5-29.6,9.5
	c-28.5,0-51.6-23.1-51.6-51.6c0-28.5,23.1-51.6,51.6-51.6c7,0,13.6,1.4,19.6,3.9c13-25.4,38.5-43.1,68.5-44.8
	c1.6-0.1,3.1-0.3,4.7-0.3c8.3,0,16.3,1.3,23.8,3.6c10.2,3.1,19.5,8.2,27.5,14.7c7.7,6.2,14.1,13.9,19.2,22.5
	c0.9,1.5,1.8,2.8,2.6,4.3c6.1-2.5,12.7-3.9,19.6-3.9c28.5,0,51.6,23.1,51.6,51.6C400.4,333.6,377.3,356.6,348.8,356.6z"/>
</svg>
