<?xml version="1.0" encoding="utf-8"?>
<!-- Generator: Adobe Illustrator 21.1.0, SVG Export Plug-In . SVG Version: 6.00 Build 0)  -->
<svg version="1.1" id="Layer_1" xmlns="http://www.w3.org/2000/svg" xmlns:xlink="http://www.w3.org/1999/xlink" x="0px" y="0px"
	 viewBox="0 0 512 512" style="enable-background:new 0 0 512 512;" xml:space="preserve">
<style type="text/css">
	.st0{fill:#FF931E;}
</style>
<g>
	<g>
		<path class="st0" d="M297,366l-10.5-6.1c0.3-1.8,0.6-3.7,0.6-5.6c0-1.9-0.2-3.8-0.6-5.6l10.6-6.1c4.9-2.9,6.6-9.2,3.8-14.1
			c-2.9-5-9.2-6.7-14.1-3.8l-10.7,6.2c-2.9-2.4-6.1-4.3-9.7-5.6v-12.2c0-5.7-4.7-10.4-10.4-10.4c-5.7,0-10.4,4.6-10.4,10.4v12.2
			c-3.6,1.3-6.8,3.2-9.7,5.6l-10.6-6.2c-5-2.9-11.3-1.2-14.2,3.8c-2.9,4.9-1.1,11.3,3.8,14.1l10.5,6.1c-0.3,1.8-0.6,3.7-0.6,5.7
			c0,1.9,0.2,3.8,0.6,5.6L215,366c-5,2.9-6.7,9.2-3.8,14.2c2.9,4.9,9.2,6.6,14.1,3.8l10.6-6.1c2.9,2.4,6.1,4.3,9.7,5.6v12.3
			c0,5.7,4.6,10.3,10.4,10.3c5.7,0,10.4-4.6,10.4-10.3v-12.3c3.6-1.3,6.8-3.2,9.7-5.6l10.6,6.2c5,2.9,11.3,1.2,14.1-3.8
			C303.7,375.2,302,368.9,297,366z M256,364.6c-5.7,0-10.4-4.7-10.4-10.4s4.7-10.3,10.4-10.3s10.4,4.6,10.4,10.3
			S261.7,364.6,256,364.6z M383.8,338.2l-7.1-1.9c-0.2-2.2-0.7-4.4-1.7-6.4l5.1-5.1c2.4-2.4,2.4-6.3,0-8.7c-2.4-2.4-6.3-2.4-8.7,0
			l-5.2,5.1c-2-1-4.2-1.5-6.4-1.7l-1.9-7.1c-0.9-3.3-4.2-5.2-7.5-4.4c-3.3,0.9-5.2,4.3-4.3,7.5l1.9,7c-0.9,0.6-1.8,1.3-2.6,2.1
			c-0.8,0.8-1.5,1.7-2.1,2.6l-7-1.9c-3.3-0.9-6.7,1.1-7.6,4.4c-0.9,3.3,1.1,6.7,4.3,7.5l7,1.9c0.2,2.2,0.8,4.4,1.7,6.4l-5.2,5.2
			c-2.4,2.4-2.4,6.3,0,8.7c2.4,2.4,6.3,2.4,8.7,0l5.2-5.2c2,1,4.2,1.6,6.4,1.7l1.9,7c0.9,3.3,4.2,5.2,7.5,4.4
			c3.3-0.9,5.2-4.2,4.4-7.6l-1.9-7c0.9-0.6,1.8-1.3,2.6-2.1c0.8-0.8,1.5-1.7,2.1-2.6l7,1.9c3.3,0.9,6.7-1.1,7.5-4.3
			C389,342.4,387.1,339.1,383.8,338.2z M362.8,342.1c-2.4,2.4-6.3,2.4-8.7,0c-2.4-2.4-2.4-6.3,0-8.7c2.4-2.4,6.3-2.4,8.7,0
			C365.2,335.8,365.2,339.7,362.8,342.1z M175.7,306.7l-7,1.9c-0.6-0.9-1.3-1.8-2.1-2.6c-0.8-0.8-1.7-1.5-2.6-2.1l1.9-7
			c0.9-3.3-1.1-6.7-4.3-7.5c-3.3-0.9-6.7,1.1-7.5,4.3l-1.9,7.1c-2.2,0.2-4.4,0.7-6.4,1.7l-5.2-5.1c-2.4-2.4-6.3-2.4-8.7,0
			c-2.4,2.4-2.4,6.3,0,8.7l5.1,5.1c-1,2.1-1.5,4.2-1.7,6.4l-7.1,1.9c-3.3,0.9-5.2,4.2-4.4,7.5c0.9,3.3,4.3,5.2,7.6,4.3l7-1.9
			c0.6,0.9,1.3,1.8,2.2,2.6c0.8,0.8,1.7,1.5,2.6,2.1l-1.9,7c-0.9,3.3,1.1,6.7,4.3,7.6c3.3,0.9,6.6-1.1,7.5-4.4l1.9-7
			c2.2-0.2,4.4-0.7,6.4-1.7l5.2,5.2c2.4,2.4,6.3,2.4,8.7,0c2.4-2.4,2.4-6.3,0-8.7l-5.2-5.2c1-2,1.6-4.2,1.7-6.4l7.1-1.9
			c3.3-0.9,5.2-4.2,4.3-7.5C182.4,307.8,179,305.8,175.7,306.7z M157.9,323.4c-2.4,2.4-6.3,2.4-8.7,0c-2.4-2.4-2.4-6.3,0-8.7
			c2.4-2.4,6.3-2.4,8.7,0C160.3,317.1,160.3,321,157.9,323.4z M406,209.1c0-36.2-29.4-65.6-65.6-65.6c-3.1,0-6.2,0.2-9.3,0.7
			C313.6,120.3,286,106,256,106s-57.6,14.3-75.1,38.2c-3.1-0.4-6.1-0.7-9.3-0.7c-36.2,0-65.6,29.4-65.6,65.6s29.4,65.6,65.6,65.6
			c8,0,15.9-1.5,23.3-4.3c17,14.8,38.5,23,61.1,23c22.6,0,44.1-8.3,61.1-23c7.4,2.8,15.2,4.3,23.3,4.3
			C376.6,274.8,406,245.3,406,209.1z M313.5,247.4c-13.8,16.6-34.2,27.3-57.5,27.3c-23.2,0-43.7-10.8-57.5-27.3
			c-7.6,5.4-16.9,8.6-26.9,8.6c-25.9,0-46.9-21-46.9-46.9s21-46.9,46.9-46.9c6.3,0,12.3,1.3,17.8,3.6c12.4-24.3,37.4-41.1,66.5-41.1
			c29.1,0,54.1,16.8,66.5,41.1c5.5-2.3,11.5-3.6,17.8-3.6c25.9,0,46.9,21,46.9,46.9s-21,46.9-46.9,46.9
			C330.3,256,321.1,252.8,313.5,247.4z"/>
	</g>
</g>
</svg>
